# xmcd
#
# Track frame offsets: 
#        150
#        12723
#        25290
#        36098
#        47491
#        59981
#        69539
#        80273
#        91748
#        102938
#        114756
#        125272
#        137182
#        149227
#        162280
#        173372
#        184552
#        196329
#        207679
#        219341
#
# Disc length: 3080 seconds
#
# Revision: 0
# Processed by: cddbd v1.5.2PL0 Copyright (c) Steve Scherf et al.
# Submitted via: ExactAudioCopyFreeDBPlugin 1.0
#
DISCID=1f0c0614
DTITLE=Lenny Welch - A Taste Of Honey
DYEAR=1959
DGENRE=Ballad
TTITLE0=You Don't Know Me
TTITLE1=I Need Someone
TTITLE2=Darlin'
TTITLE3=Three Handed Woman
TTITLE4=I'd Like To Know
TTITLE5=Changa Rock
TTITLE6=Boogie Cha Cha
TTITLE7=Mama, Don't You Hit That Boy
TTITLE8=It's Just Not That Easy
TTITLE9=Ebb Tide
TTITLE10=Congratulations Baby
TTITLE11=A Taste Of Honey
TTITLE12=The Old Cathedral
TTITLE13=Since I Fell For You
TTITLE14=Are You Sincere
TTITLE15=You Can Have Her
TTITLE16=Stranger In Paradise
TTITLE17=I'm In The Mood For Love
TTITLE18=If You See My Love
TTITLE19=Father Sebastian
EXTD=
EXTT0=
EXTT1=
EXTT2=
EXTT3=
EXTT4=
EXTT5=
EXTT6=
EXTT7=
EXTT8=
EXTT9=
EXTT10=
EXTT11=
EXTT12=
EXTT13=
EXTT14=
EXTT15=
EXTT16=
EXTT17=
EXTT18=
EXTT19=
PLAYORDER=
